<svg id="visual" viewBox="0 0 960 540" width="960" height="540" xmlns="http://www.w3.org/2000/svg" xmlns:xlink="http://www.w3.org/1999/xlink" version="1.1"><rect x="0" y="0" width="960" height="540" fill="#002233"></rect><path d="M852 540L858.2 527.2C864.3 514.3 876.7 488.7 880.2 463C883.7 437.3 878.3 411.7 880 386C881.7 360.3 890.3 334.7 894.5 308.8C898.7 283 898.3 257 892.3 231.2C886.3 205.3 874.7 179.7 872.7 154C870.7 128.3 878.3 102.7 875.3 77C872.3 51.3 858.7 25.7 851.8 12.8L845 0L960 0L960 12.8C960 25.7 960 51.3 960 77C960 102.7 960 128.3 960 154C960 179.7 960 205.3 960 231.2C960 257 960 283 960 308.8C960 334.7 960 360.3 960 386C960 411.7 960 437.3 960 463C960 488.7 960 514.3 960 527.2L960 540Z" fill="#0066FF" stroke-linecap="round" stroke-linejoin="miter"></path></svg>