<?xml version="1.0" standalone="no"?>
<svg xmlns:xlink="http://www.w3.org/1999/xlink" id="wave" style="transform:rotate(0deg); transition: 0.3s" viewBox="0 0 1440 290" version="1.1" xmlns="http://www.w3.org/2000/svg"><defs><linearGradient id="sw-gradient-0" x1="0" x2="0" y1="1" y2="0"><stop stop-color="rgba(255, 77.604, 5.129, 1)" offset="0%"/><stop stop-color="rgba(255, 208.635, 25.284, 1)" offset="100%"/></linearGradient></defs><path style="transform:translate(0, 0px); opacity:1" fill="url(#sw-gradient-0)" d="M0,203L48,178.8C96,155,192,106,288,72.5C384,39,480,19,576,33.8C672,48,768,97,864,140.2C960,184,1056,222,1152,217.5C1248,213,1344,164,1440,120.8C1536,77,1632,39,1728,24.2C1824,10,1920,19,2016,58C2112,97,2208,164,2304,198.2C2400,232,2496,232,2592,227.2C2688,222,2784,213,2880,178.8C2976,145,3072,87,3168,96.7C3264,106,3360,184,3456,212.7C3552,242,3648,222,3744,222.3C3840,222,3936,242,4032,227.2C4128,213,4224,164,4320,159.5C4416,155,4512,193,4608,183.7C4704,174,4800,116,4896,120.8C4992,126,5088,193,5184,217.5C5280,242,5376,222,5472,183.7C5568,145,5664,87,5760,87C5856,87,5952,145,6048,183.7C6144,222,6240,242,6336,246.5C6432,251,6528,242,6624,198.2C6720,155,6816,77,6864,38.7L6912,0L6912,290L6864,290C6816,290,6720,290,6624,290C6528,290,6432,290,6336,290C6240,290,6144,290,6048,290C5952,290,5856,290,5760,290C5664,290,5568,290,5472,290C5376,290,5280,290,5184,290C5088,290,4992,290,4896,290C4800,290,4704,290,4608,290C4512,290,4416,290,4320,290C4224,290,4128,290,4032,290C3936,290,3840,290,3744,290C3648,290,3552,290,3456,290C3360,290,3264,290,3168,290C3072,290,2976,290,2880,290C2784,290,2688,290,2592,290C2496,290,2400,290,2304,290C2208,290,2112,290,2016,290C1920,290,1824,290,1728,290C1632,290,1536,290,1440,290C1344,290,1248,290,1152,290C1056,290,960,290,864,290C768,290,672,290,576,290C480,290,384,290,288,290C192,290,96,290,48,290L0,290Z"/></svg>